<svg width="22" height="23" viewBox="0 0 22 23" fill="none" xmlns="http://www.w3.org/2000/svg">
<path fill-rule="evenodd" clip-rule="evenodd" d="M11 9.2C12.2503 9.2 13.4494 8.71536 14.3335 7.85269C15.2176 6.99002 15.7143 5.82 15.7143 4.6C15.7143 3.38 15.2176 2.20998 14.3335 1.34731C13.4494 0.484642 12.2503 0 11 0C9.74969 0 8.5506 0.484642 7.6665 1.34731C6.7824 2.20998 6.28571 3.38 6.28571 4.6C6.28571 5.82 6.7824 6.99002 7.6665 7.85269C8.5506 8.71536 9.74969 9.2 11 9.2ZM0 23C-2.15253e-08 21.5905 0.284524 20.1948 0.837325 18.8925C1.39013 17.5903 2.20038 16.4071 3.22183 15.4104C4.24327 14.4137 5.4559 13.6231 6.79048 13.0837C8.12506 12.5443 9.55546 12.2667 11 12.2667C12.4445 12.2667 13.8749 12.5443 15.2095 13.0837C16.5441 13.6231 17.7567 14.4137 18.7782 15.4104C19.7996 16.4071 20.6099 17.5903 21.1627 18.8925C21.7155 20.1948 22 21.5905 22 23H0Z" fill="white"/>
</svg>
