<svg width="37" height="28" viewBox="0 0 37 28" fill="none" xmlns="http://www.w3.org/2000/svg">
<path d="M31.0128 3.4511C27.8977 0.944311 22.9697 0.519379 22.7587 0.504093C22.4316 0.476579 22.1198 0.660004 21.9853 0.962653C21.9731 0.980995 21.8661 1.22862 21.7469 1.61381C23.8073 1.96231 26.3386 2.66238 28.6283 4.08392C28.9952 4.31014 29.1083 4.79316 28.882 5.16C28.7323 5.40151 28.4785 5.53297 28.2156 5.53297C28.075 5.53297 27.9313 5.49322 27.8029 5.41374C23.8654 2.97114 18.9496 2.84886 18.002 2.84886C17.0543 2.84886 12.1354 2.97114 8.201 5.41374C7.83416 5.64302 7.35114 5.52991 7.12492 5.16306C6.89564 4.79316 7.00875 4.3132 7.37559 4.08392C9.66534 2.66544 12.1966 1.96231 14.257 1.61686C14.1378 1.22862 14.0308 0.984053 14.0217 0.962653C13.8841 0.660004 13.5753 0.470466 13.2452 0.504093C13.0342 0.519379 8.10623 0.94431 4.94829 3.48473C3.30053 5.01021 0.00195312 13.9246 0.00195312 21.6315C0.00195312 21.769 0.0386379 21.9005 0.105894 22.0197C2.38035 26.0184 8.58925 27.0639 10.0047 27.1097C10.0108 27.1097 10.02 27.1097 10.0291 27.1097C10.2798 27.1097 10.5152 26.9905 10.6619 26.7887L12.0926 24.82C8.23157 23.8234 6.25977 22.1298 6.14666 22.0289C5.82261 21.7446 5.79204 21.2493 6.0794 20.9253C6.36371 20.6012 6.85895 20.5707 7.183 20.855C7.22886 20.8978 10.8606 23.9793 18.002 23.9793C25.1555 23.9793 28.7873 20.8855 28.824 20.855C29.148 20.5737 29.6402 20.6012 29.9276 20.9283C30.2119 21.2524 30.1813 21.7446 29.8573 22.0289C29.7441 22.1298 27.7723 23.8234 23.9113 24.82L25.342 26.7887C25.4887 26.9905 25.7241 27.1097 25.9748 27.1097C25.9839 27.1097 25.9931 27.1097 25.9992 27.1097C27.4147 27.0639 33.6236 26.0184 35.898 22.0197C35.9653 21.9005 36.002 21.769 36.002 21.6315C36.002 13.9246 32.7034 5.01021 31.0128 3.4511ZM12.915 18.501C11.4017 18.501 10.1759 17.1009 10.1759 15.3706C10.1759 13.6403 11.4017 12.2402 12.915 12.2402C14.4282 12.2402 15.6541 13.6403 15.6541 15.3706C15.6541 17.1009 14.4282 18.501 12.915 18.501ZM23.0889 18.501C21.5757 18.501 20.3498 17.1009 20.3498 15.3706C20.3498 13.6403 21.5757 12.2402 23.0889 12.2402C24.6022 12.2402 25.828 13.6403 25.828 15.3706C25.828 17.1009 24.6022 18.501 23.0889 18.501Z" fill="black"/>
</svg>
