<svg width="37" height="36" viewBox="0 0 37 36" fill="none" xmlns="http://www.w3.org/2000/svg">
<path d="M1.50586 18.0949C1.5076 25.5194 6.87346 31.8411 14.1614 33.0046V22.4566H10.3559V18.0949H14.1659V14.7746C13.9955 13.2013 14.5296 11.6333 15.6233 10.4958C16.717 9.35836 18.2569 8.76937 19.8254 8.88858C20.9512 8.90687 22.0741 9.00776 23.1854 9.19043V12.9016H21.2894C20.6366 12.8156 19.9804 13.0325 19.5055 13.4912C19.0306 13.95 18.7885 14.6009 18.8474 15.2606V18.0949H23.0039L22.3394 22.4581H18.8474V33.0046C26.7291 31.7514 32.256 24.5088 31.4241 16.5239C30.5922 8.53899 23.6928 2.60704 15.7241 3.02547C7.7554 3.44391 1.50713 10.0662 1.50586 18.0949Z" fill="black"/>
</svg>
