<svg width="37" height="36" viewBox="0 0 37 36" fill="none" xmlns="http://www.w3.org/2000/svg">
<path d="M29.4682 9.27033C30.7538 8.46606 31.7158 7.19964 32.1744 5.70754C30.9664 6.45762 29.6446 6.986 28.2663 7.26982C26.3554 5.15455 23.3278 4.63979 20.8752 6.01318C18.4226 7.38656 17.1522 10.3081 17.7739 13.1453C12.8255 12.8853 8.21512 10.4393 5.09011 6.4159C3.45922 9.3595 4.29264 13.1224 6.99469 15.0152C6.0176 14.9823 5.06218 14.7055 4.20809 14.2078C4.20809 14.2348 4.20809 14.2618 4.20809 14.2888C4.20866 17.3551 6.27383 19.9963 9.14594 20.604C8.23964 20.862 7.28899 20.9 6.36652 20.7151C7.17424 23.3373 9.48376 25.1337 12.1161 25.1873C9.93593 26.9779 7.24348 27.9489 4.47198 27.9442C3.98073 27.9449 3.48987 27.9154 3.00195 27.8556C5.81636 29.7481 9.09198 30.7526 12.4374 30.7491C17.0916 30.7825 21.5645 28.8625 24.8555 25.4184C28.1465 21.9744 29.981 17.2937 29.9486 12.4234C29.9486 12.1443 29.9424 11.8666 29.93 11.5905C31.1353 10.6789 32.1756 9.54969 33.002 8.25582C31.879 8.77667 30.6879 9.11863 29.4682 9.27033Z" fill="black"/>
</svg>
