<svg width="37" height="27" viewBox="0 0 37 27" fill="none" xmlns="http://www.w3.org/2000/svg">
<path d="M34.9971 4.58382C34.6643 2.75114 33.0786 1.4165 31.2385 0.999837C28.4848 0.417155 23.3886 0.000488281 17.8747 0.000488281C12.3641 0.000488281 7.18629 0.417155 4.42936 0.999837C2.59249 1.4165 1.00358 2.6665 0.670795 4.58382C0.334743 6.66716 0.00195312 9.58382 0.00195312 13.3338C0.00195312 17.0838 0.334743 20.0005 0.752361 22.0838C1.08841 23.9165 2.67406 25.2511 4.51093 25.6678C7.43425 26.2505 12.4457 26.6672 17.9595 26.6672C23.4734 26.6672 28.4848 26.2505 31.4082 25.6678C33.245 25.2511 34.8307 24.0011 35.1667 22.0838C35.4995 20.0005 35.9171 16.9992 36.002 13.3338C35.8323 9.58382 35.4147 6.66716 34.9971 4.58382ZM13.3657 19.1672V7.50049L23.555 13.3338L13.3657 19.1672Z" fill="black"/>
</svg>
