<svg width="37" height="37" viewBox="0 0 37 37" fill="none" xmlns="http://www.w3.org/2000/svg">
<path d="M31.7162 0.499756H4.28767C1.92452 0.499756 0.00195312 2.42233 0.00195312 4.78547V32.214C0.00195312 34.5772 1.92452 36.4998 4.28767 36.4998H31.7162C34.0794 36.4998 36.002 34.5772 36.002 32.214V4.78547C36.002 2.42233 34.0794 0.499756 31.7162 0.499756ZM28.2928 16.2052C28.0982 16.2232 27.9011 16.2352 27.7014 16.2352C25.4531 16.2352 23.4774 15.0789 22.328 13.3312C22.328 17.916 22.328 23.1326 22.328 23.22C22.328 27.2563 19.0554 30.5289 15.0191 30.5289C10.9828 30.5289 7.71024 27.2563 7.71024 23.22C7.71024 19.1838 10.9828 15.9112 15.0191 15.9112C15.1717 15.9112 15.3208 15.9249 15.4708 15.9343V19.536C15.3208 19.518 15.1734 19.4906 15.0191 19.4906C12.9585 19.4906 11.2888 21.1603 11.2888 23.2209C11.2888 25.2815 12.9585 26.9512 15.0191 26.9512C17.0797 26.9512 18.8994 25.3278 18.8994 23.2672C18.8994 23.1858 18.9354 6.47233 18.9354 6.47233H22.3777C22.7017 9.55033 25.1865 11.9795 28.2928 12.2023V16.2052Z" fill="black"/>
</svg>
